{
  "asset": {
    "version": "2.0",
    "generator": "SparkleEngine Stage 9 morph target validation"
  },
  "scene": 0,
  "scenes": [
    {
      "nodes": [0]
    }
  ],
  "nodes": [
    {
      "name": "MorphTriangleNode",
      "mesh": 0,
      "weights": [1.0]
    }
  ],
  "meshes": [
    {
      "name": "MorphTriangle",
      "weights": [1.0],
      "primitives": [
        {
          "attributes": {
            "POSITION": 0
          },
          "indices": 1,
          "targets": [
            {
              "POSITION": 2
            }
          ],
          "mode": 4
        }
      ]
    }
  ],
  "accessors": [
    {
      "bufferView": 0,
      "componentType": 5126,
      "count": 3,
      "type": "VEC3",
      "min": [-0.5, 0.0, 0.0],
      "max": [0.5, 1.0, 0.0]
    },
    {
      "bufferView": 1,
      "componentType": 5123,
      "count": 3,
      "type": "SCALAR",
      "min": [0],
      "max": [2]
    },
    {
      "bufferView": 2,
      "componentType": 5126,
      "count": 3,
      "type": "VEC3",
      "min": [0.0, 0.0, 0.0],
      "max": [0.0, 0.5, 0.0]
    }
  ],
  "bufferViews": [
    {
      "buffer": 0,
      "byteOffset": 0,
      "byteLength": 36,
      "target": 34962
    },
    {
      "buffer": 0,
      "byteOffset": 36,
      "byteLength": 6,
      "target": 34963
    },
    {
      "buffer": 0,
      "byteOffset": 44,
      "byteLength": 36,
      "target": 34962
    }
  ],
  "buffers": [
    {
      "byteLength": 80,
      "uri": "data:application/octet-stream;base64,"
    }
  ]
}
