{
    "asset":  {
                  "version":  "2.0",
                  "generator":  "SparkleEngine Stage 9 skeletal morph validation fixture"
              },
    "scene":  0,
    "scenes":  [
                   {
                       "nodes":  [
                                     0
                                 ]
                   }
               ],
    "nodes":  [
                  {
                      "name":  "SkeletalMorphTriangleRoot",
                      "children":  [
                                       1,
                                       2
                                   ]
                  },
                  {
                      "name":  "MorphJoint",
                      "translation":  [
                                          0,
                                          0,
                                          0
                                      ]
                  },
                  {
                      "name":  "SkeletalMorphTriangleMesh",
                      "mesh":  0,
                      "skin":  0,
                      "weights":  [
                                      0
                                  ]
                  }
              ],
    "skins":  [
                  {
                      "name":  "SkeletalMorphTriangleSkin",
                      "joints":  [
                                     1
                                 ],
                      "inverseBindMatrices":  7,
                      "skeleton":  1
                  }
              ],
    "meshes":  [
                   {
                       "name":  "SkeletalMorphTriangleMesh",
                       "weights":  [
                                       0
                                   ],
                       "extras":  {
                                      "targetNames":  [
                                                          "RaiseTip"
                                                      ]
                                  },
                       "primitives":  [
                                          {
                                              "attributes":  {
                                                                 "POSITION":  1,
                                                                 "NORMAL":  2,
                                                                 "TEXCOORD_0":  3,
                                                                 "JOINTS_0":  4,
                                                                 "WEIGHTS_0":  5
                                                             },
                                              "indices":  0,
                                              "mode":  4,
                                              "targets":  [
                                                              {
                                                                  "POSITION":  6
                                                              }
                                                          ]
                                          }
                                      ]
                   }
               ],
    "animations":  [
                       {
                           "name":  "SkeletalMorphTriangleWeights",
                           "samplers":  [
                                            {
                                                "input":  8,
                                                "output":  9,
                                                "interpolation":  "LINEAR"
                                            },
                                            {
                                                "input":  8,
                                                "output":  10,
                                                "interpolation":  "STEP"
                                            }
                                        ],
                           "channels":  [
                                            {
                                                "sampler":  0,
                                                "target":  {
                                                               "node":  2,
                                                               "path":  "weights"
                                                           }
                                            },
                                            {
                                                "sampler":  1,
                                                "target":  {
                                                               "node":  1,
                                                               "path":  "translation"
                                                           }
                                            }
                                        ]
                       }
                   ],
    "buffers":  [
                    {
                        "uri":  "SkeletalMorphTriangle.bin",
                        "byteLength":  324
                    }
                ],
    "bufferViews":  [
                        {
                            "name":  "indices",
                            "buffer":  0,
                            "byteOffset":  0,
                            "byteLength":  8,
                            "target":  34963
                        },
                        {
                            "name":  "positions",
                            "buffer":  0,
                            "byteOffset":  8,
                            "byteLength":  36,
                            "target":  34962
                        },
                        {
                            "name":  "normals",
                            "buffer":  0,
                            "byteOffset":  44,
                            "byteLength":  36,
                            "target":  34962
                        },
                        {
                            "name":  "texcoords",
                            "buffer":  0,
                            "byteOffset":  80,
                            "byteLength":  24,
                            "target":  34962
                        },
                        {
                            "name":  "joints",
                            "buffer":  0,
                            "byteOffset":  104,
                            "byteLength":  12,
                            "target":  34962
                        },
                        {
                            "name":  "weights",
                            "buffer":  0,
                            "byteOffset":  116,
                            "byteLength":  48,
                            "target":  34962
                        },
                        {
                            "name":  "morph_positions",
                            "buffer":  0,
                            "byteOffset":  164,
                            "byteLength":  36,
                            "target":  34962
                        },
                        {
                            "name":  "inverse_bind_matrices",
                            "buffer":  0,
                            "byteOffset":  200,
                            "byteLength":  64
                        },
                        {
                            "name":  "anim_times",
                            "buffer":  0,
                            "byteOffset":  264,
                            "byteLength":  12
                        },
                        {
                            "name":  "anim_weights",
                            "buffer":  0,
                            "byteOffset":  276,
                            "byteLength":  12
                        },
                        {
                            "name":  "anim_joint_translation",
                            "buffer":  0,
                            "byteOffset":  288,
                            "byteLength":  36
                        }
                    ],
    "accessors":  [
                      {
                          "bufferView":  0,
                          "componentType":  5123,
                          "count":  3,
                          "type":  "SCALAR",
                          "min":  [
                                      0
                                  ],
                          "max":  [
                                      2
                                  ]
                      },
                      {
                          "bufferView":  1,
                          "componentType":  5126,
                          "count":  3,
                          "type":  "VEC3",
                          "min":  [
                                      -0.6,
                                      0,
                                      0
                                  ],
                          "max":  [
                                      0.6,
                                      0.8,
                                      0
                                  ]
                      },
                      {
                          "bufferView":  2,
                          "componentType":  5126,
                          "count":  3,
                          "type":  "VEC3"
                      },
                      {
                          "bufferView":  3,
                          "componentType":  5126,
                          "count":  3,
                          "type":  "VEC2"
                      },
                      {
                          "bufferView":  4,
                          "componentType":  5121,
                          "count":  3,
                          "type":  "VEC4"
                      },
                      {
                          "bufferView":  5,
                          "componentType":  5126,
                          "count":  3,
                          "type":  "VEC4"
                      },
                      {
                          "bufferView":  6,
                          "componentType":  5126,
                          "count":  3,
                          "type":  "VEC3",
                          "min":  [
                                      0,
                                      0,
                                      0
                                  ],
                          "max":  [
                                      0,
                                      0.55,
                                      0
                                  ]
                      },
                      {
                          "bufferView":  7,
                          "componentType":  5126,
                          "count":  1,
                          "type":  "MAT4"
                      },
                      {
                          "bufferView":  8,
                          "componentType":  5126,
                          "count":  3,
                          "type":  "SCALAR",
                          "min":  [
                                      0
                                  ],
                          "max":  [
                                      1
                                  ]
                      },
                      {
                          "bufferView":  9,
                          "componentType":  5126,
                          "count":  3,
                          "type":  "SCALAR",
                          "min":  [
                                      0
                                  ],
                          "max":  [
                                      1
                                  ]
                      },
                      {
                          "bufferView":  10,
                          "componentType":  5126,
                          "count":  3,
                          "type":  "VEC3"
                      }
                  ]
}
