{
  "asset": {
    "version": "2.0",
    "generator": "SparkleEngine Stage 10 material variant validation"
  },
  "extensionsUsed": [
    "KHR_materials_variants"
  ],
  "extensions": {
    "KHR_materials_variants": {
      "variants": [
        {
          "name": "Blue"
        }
      ]
    }
  },
  "scene": 0,
  "scenes": [
    {
      "nodes": [0]
    }
  ],
  "nodes": [
    {
      "name": "VariantTriangleNode",
      "mesh": 0
    }
  ],
  "meshes": [
    {
      "name": "VariantTriangle",
      "primitives": [
        {
          "attributes": {
            "POSITION": 0
          },
          "indices": 1,
          "material": 0,
          "mode": 4,
          "extensions": {
            "KHR_materials_variants": {
              "mappings": [
                {
                  "material": 1,
                  "variants": [0]
                }
              ]
            }
          }
        }
      ]
    }
  ],
  "materials": [
    {
      "name": "VariantTriangle Red",
      "pbrMetallicRoughness": {
        "baseColorFactor": [1.0, 0.05, 0.02, 1.0],
        "metallicFactor": 0.0,
        "roughnessFactor": 0.75
      }
    },
    {
      "name": "VariantTriangle Blue",
      "pbrMetallicRoughness": {
        "baseColorFactor": [0.05, 0.2, 1.0, 1.0],
        "metallicFactor": 0.0,
        "roughnessFactor": 0.75
      }
    }
  ],
  "accessors": [
    {
      "bufferView": 0,
      "componentType": 5126,
      "count": 3,
      "type": "VEC3",
      "min": [-0.5, 0.0, 0.0],
      "max": [0.5, 1.0, 0.0]
    },
    {
      "bufferView": 1,
      "componentType": 5123,
      "count": 3,
      "type": "SCALAR",
      "min": [0],
      "max": [2]
    }
  ],
  "bufferViews": [
    {
      "buffer": 0,
      "byteOffset": 0,
      "byteLength": 36,
      "target": 34962
    },
    {
      "buffer": 0,
      "byteOffset": 36,
      "byteLength": 6,
      "target": 34963
    }
  ],
  "buffers": [
    {
      "byteLength": 80,
      "uri": "data:application/octet-stream;base64,"
    }
  ]
}
